STARTFONT 2.1
FONT -sun-helmet-medium-r-normal--24-240-75-75-p-130-adobe-fontspecific
SIZE 24 75 75
FONTBOUNDINGBOX 28 28 -4 -5

STARTPROPERTIES 28
FOUNDRY "sun"
FAMILY_NAME "helmet"
WEIGHT_NAME "medium"
SLANT "r"
SETWIDTH_NAME "normal"
ADD_STYLE_NAME ""
PIXEL_SIZE 25
POINT_SIZE 240
RESOLUTION_X 75
RESOLUTION_Y 75
SPACING "p"
AVERAGE_WIDTH 130
CHARSET_REGISTRY "adobe"
CHARSET_ENCODING "fontspecific"
COPYRIGHT "© 1999 Sun Microsystems, Inc."
RAW_PIXELSIZE 1000
RAW_POINTSIZE 964
RAW_ASCENT 893
RAW_DESCENT 216
RAW_AVERAGE_WIDTH 5207
FACE_NAME "HelmetNormalalic5"
_XMBDFED_INFO "Edited with xmbdfed 2.4."
WEIGHT 10
X_HEIGHT -1
QUAD_WIDTH 13
DEFAULT_CHAR 4
FONT_DESCENT 5
FONT_ASCENT 23
ENDPROPERTIES

CHARS 203

STARTCHAR char32
ENCODING 32
SWIDTH 25 0
DWIDTH 7 0
BBX 0 0 0 0
BITMAP
ENDCHAR

STARTCHAR char33
ENCODING 33
SWIDTH 25 0
DWIDTH 7 0
BBX 2 17 3 0
BITMAP
C0
C0
C0
C0
C0
C0
C0
C0
C0
C0
C0
40
40
00
00
C0
C0
ENDCHAR

STARTCHAR char34
ENCODING 34
SWIDTH 35 0
DWIDTH 10 0
BBX 7 6 1 11
BITMAP
C6
C6
42
46
8C
88
ENDCHAR

STARTCHAR char35
ENCODING 35
SWIDTH 10 0
DWIDTH 13 0
BBX 12 19 0 0
BITMAP
0C60
0C60
0C60
0C40
08C0
7FF0
7FF0
18C0
18C0
18C0
1880
1080
FFE0
FFE0
3180
3180
3180
3100
3100
ENDCHAR

STARTCHAR char36
ENCODING 36
SWIDTH 21 0
DWIDTH 16 0
BBX 14 23 0 -3
BITMAP
0300
0300
0FC0
1FF0
3938
7318
631C
6300
7300
3F00
1FC0
07F0
0178
011C
C10C
C10C
611C
7138
3FF0
1FE0
0300
0300
0300
ENDCHAR

STARTCHAR char37
ENCODING 37
SWIDTH 2 0
DWIDTH 21 0
BBX 20 18 -1 0
BITMAP
100000
7E0C00
7E0C00
E30800
C31800
C31800
C33000
C333C0
C327E0
666E70
7E4C30
3CCC30
008C30
018C30
018C30
010E70
0307E0
0103C0
ENDCHAR

STARTCHAR char38
ENCODING 38
SWIDTH 17 0
DWIDTH 15 0
BBX 14 17 0 0
BITMAP
0F00
1F80
31C0
30C0
31C0
1980
1F00
1E00
3E00
7330
E1A0
C1E0
C0E0
C060
E1F0
7FB8
1F18
ENDCHAR

STARTCHAR char39
ENCODING 39
SWIDTH 17 0
DWIDTH 5 0
BBX 3 6 2 12
BITMAP
40
C0
80
80
C0
E0
ENDCHAR

STARTCHAR char40
ENCODING 40
SWIDTH 28 0
DWIDTH 8 0
BBX 5 22 2 -4
BITMAP
08
18
30
30
60
60
60
C0
C0
C0
C0
C0
C0
C0
C0
40
60
60
20
30
10
18
ENDCHAR

STARTCHAR char41
ENCODING 41
SWIDTH 28 0
DWIDTH 8 0
BBX 5 21 0 -4
BITMAP
40
60
20
20
30
30
10
18
18
18
18
18
38
38
38
30
30
30
60
60
C0
ENDCHAR

STARTCHAR char42
ENCODING 42
SWIDTH 32 0
DWIDTH 9 0
BBX 8 8 0 10
BITMAP
18
18
DA
FF
3C
3C
6E
24
ENDCHAR

STARTCHAR char43
ENCODING 43
SWIDTH 24 0
DWIDTH 17 0
BBX 15 14 0 0
BITMAP
0300
0300
0300
0300
0300
0300
FFFE
FFFE
0300
0300
0300
0300
0300
0300
ENDCHAR

STARTCHAR char44
ENCODING 44
SWIDTH 21 0
DWIDTH 6 0
BBX 3 7 1 -4
BITMAP
80
E0
E0
60
60
C0
80
ENDCHAR

STARTCHAR char45
ENCODING 45
SWIDTH 35 0
DWIDTH 10 0
BBX 8 2 0 6
BITMAP
FF
FF
ENDCHAR

STARTCHAR char46
ENCODING 46
SWIDTH 21 0
DWIDTH 6 0
BBX 2 2 2 0
BITMAP
C0
C0
ENDCHAR

STARTCHAR char47
ENCODING 47
SWIDTH 32 0
DWIDTH 9 0
BBX 8 18 0 0
BITMAP
03
03
03
06
06
0C
0C
0C
18
18
30
30
30
60
60
60
C0
C0
ENDCHAR

STARTCHAR char48
ENCODING 48
SWIDTH 13 0
DWIDTH 14 0
BBX 12 17 0 0
BITMAP
1F80
3FC0
70E0
6060
E070
C030
C030
C030
C030
C030
C030
C030
E070
6060
70E0
3FC0
0F80
ENDCHAR

STARTCHAR char49
ENCODING 49
SWIDTH 13 0
DWIDTH 14 0
BBX 6 17 2 0
BITMAP
0C
1C
3C
FC
FC
0C
0C
0C
0C
0C
0C
0C
0C
0C
0C
0C
0C
ENDCHAR

STARTCHAR char50
ENCODING 50
SWIDTH 13 0
DWIDTH 14 0
BBX 12 17 0 0
BITMAP
0F80
3FE0
3060
6030
6030
6030
0070
00E0
01C0
0780
0F00
1C00
3800
7000
6000
FFF0
FFF0
ENDCHAR

STARTCHAR char51
ENCODING 51
SWIDTH 13 0
DWIDTH 14 0
BBX 12 17 0 0
BITMAP
0F00
3FC0
70E0
6060
6060
00E0
01C0
0780
07C0
00E0
0060
C030
C070
E060
70E0
3FC0
1F00
ENDCHAR

STARTCHAR char52
ENCODING 52
SWIDTH 13 0
DWIDTH 14 0
BBX 12 18 0 0
BITMAP
00C0
01C0
01C0
03C0
06C0
06C0
0CC0
18C0
38C0
30C0
60C0
E0C0
FFF0
FFF0
00C0
00C0
00C0
00C0
ENDCHAR

STARTCHAR char53
ENCODING 53
SWIDTH 13 0
DWIDTH 14 0
BBX 12 17 0 0
BITMAP
3FE0
3FE0
3000
7000
6000
6F80
7FC0
78E0
6070
0030
0030
0030
E030
6070
70E0
3FC0
1F80
ENDCHAR

STARTCHAR char54
ENCODING 54
SWIDTH 13 0
DWIDTH 14 0
BBX 11 17 1 0
BITMAP
1F80
3FC0
60C0
6060
C000
C000
CF00
FF80
F1C0
E0E0
C060
C060
C060
60E0
70C0
3F80
1F00
ENDCHAR

STARTCHAR char55
ENCODING 55
SWIDTH 13 0
DWIDTH 14 0
BBX 11 17 1 0
BITMAP
FFE0
FFE0
00C0
0180
0380
0300
0600
0600
0C00
0C00
1C00
1800
1800
3800
3800
3000
3000
ENDCHAR

STARTCHAR char56
ENCODING 56
SWIDTH 13 0
DWIDTH 14 0
BBX 12 17 0 0
BITMAP
0F00
3FC0
7060
6060
6060
30C0
1F80
3FC0
78E0
7070
E030
C030
C030
6070
70E0
3FC0
0F80
ENDCHAR

STARTCHAR char57
ENCODING 57
SWIDTH 13 0
DWIDTH 14 0
BBX 12 17 0 0
BITMAP
1F80
3FC0
60E0
E060
C070
C070
E070
E0F0
71F0
3FB0
1F30
0070
0060
E0E0
71C0
3FC0
1F00
ENDCHAR

STARTCHAR char58
ENCODING 58
SWIDTH 25 0
DWIDTH 7 0
BBX 2 13 3 0
BITMAP
C0
C0
00
00
00
00
00
00
00
00
00
C0
C0
ENDCHAR

STARTCHAR char59
ENCODING 59
SWIDTH 25 0
DWIDTH 7 0
BBX 3 16 2 -3
BITMAP
60
60
00
00
00
00
00
00
00
00
80
60
60
20
60
40
ENDCHAR

STARTCHAR char60
ENCODING 60
SWIDTH 13 0
DWIDTH 14 0
BBX 13 13 0 0
BITMAP
0008
0038
00F0
0380
1E00
7800
E000
F000
1C00
0780
01E0
0078
0018
ENDCHAR

STARTCHAR char61
ENCODING 61
SWIDTH 24 0
DWIDTH 17 0
BBX 17 6 -1 4
BITMAP
FFFF80
FFFF80
000000
000000
FFFF80
FFFF80
ENDCHAR

STARTCHAR char62
ENCODING 62
SWIDTH 13 0
DWIDTH 14 0
BBX 13 13 0 0
BITMAP
8000
E000
3C00
0F00
03C0
00F0
0018
0078
01E0
0780
1C00
F000
C000
ENDCHAR

STARTCHAR char63
ENCODING 63
SWIDTH 10 0
DWIDTH 13 0
BBX 11 17 0 0
BITMAP
0F00
3FC0
6060
6060
6060
0060
00C0
0180
0380
0300
0200
0600
0600
0000
0000
0600
0600
ENDCHAR

STARTCHAR char64
ENCODING 64
SWIDTH 24 0
DWIDTH 27 0
BBX 18 20 4 -1
BITMAP
01F000
07F800
1C0E00
300700
600180
43ED80
C7FCC0
CE1CC0
CC18C0
DC18C0
D818C0
D81180
D83100
DC7300
4FFE00
679980
300380
1C0F00
07FC00
01F000
ENDCHAR

STARTCHAR char65
ENCODING 65
SWIDTH 21 0
DWIDTH 16 0
BBX 16 17 -1 0
BITMAP
0380
03C0
07C0
06C0
0660
0E60
0C70
0C30
1C30
1838
3FF8
3FF8
301C
700C
600E
E00E
E006
ENDCHAR

STARTCHAR char66
ENCODING 66
SWIDTH 21 0
DWIDTH 16 0
BBX 13 17 1 0
BITMAP
FFC0
FFE0
C030
C038
C038
C030
C070
FFE0
FFF0
C038
C018
C018
C018
C038
C070
FFF0
FFC0
ENDCHAR

STARTCHAR char67
ENCODING 67
SWIDTH 24 0
DWIDTH 17 0
BBX 15 17 0 0
BITMAP
0FE0
3FF8
381C
700E
6006
E000
C000
C000
C000
C000
E006
E006
700E
700C
3C3C
1FF0
07E0
ENDCHAR

STARTCHAR char68
ENCODING 68
SWIDTH 24 0
DWIDTH 17 0
BBX 14 17 1 0
BITMAP
FFC0
FFF0
C078
C038
C018
C00C
C00C
C00C
C00C
C00C
C01C
C01C
C038
C078
C0F0
FFE0
FF80
ENDCHAR

STARTCHAR char69
ENCODING 69
SWIDTH 17 0
DWIDTH 15 0
BBX 13 17 1 0
BITMAP
FFF0
FFF0
C000
C000
C000
C000
C000
FFE0
FFE0
C000
C000
C000
C000
C000
C000
FFF8
FFF8
ENDCHAR

STARTCHAR char70
ENCODING 70
SWIDTH 13 0
DWIDTH 14 0
BBX 12 17 1 0
BITMAP
FFF0
FFF0
C000
C000
C000
C000
C000
FFC0
FFC0
C000
C000
C000
C000
C000
C000
C000
C000
ENDCHAR

STARTCHAR char71
ENCODING 71
SWIDTH 28 0
DWIDTH 18 0
BBX 16 17 0 0
BITMAP
0FE0
3FF8
381C
700E
6007
E000
C000
C000
C0FF
C0FF
C007
E007
6007
700F
3C1B
1FF3
07E3
ENDCHAR

STARTCHAR char72
ENCODING 72
SWIDTH 24 0
DWIDTH 17 0
BBX 13 17 1 0
BITMAP
C018
C018
C018
C018
C018
C018
C018
FFF8
FFF8
C018
C018
C018
C018
C018
C018
C018
C018
ENDCHAR

STARTCHAR char73
ENCODING 73
SWIDTH 21 0
DWIDTH 6 0
BBX 2 17 2 0
BITMAP
C0
C0
C0
C0
C0
C0
C0
C0
C0
C0
C0
C0
C0
C0
C0
C0
C0
ENDCHAR

STARTCHAR char74
ENCODING 74
SWIDTH 6 0
DWIDTH 12 0
BBX 10 17 0 0
BITMAP
00C0
00C0
00C0
00C0
00C0
00C0
00C0
00C0
00C0
00C0
00C0
C0C0
C0C0
C1C0
63C0
7F80
3F00
ENDCHAR

STARTCHAR char75
ENCODING 75
SWIDTH 21 0
DWIDTH 16 0
BBX 15 17 1 0
BITMAP
C03C
C078
C0E0
C1C0
C380
C700
CE00
DE00
FF00
F380
E1C0
C0E0
C0E0
C070
C038
C01C
C01C
ENDCHAR

STARTCHAR char76
ENCODING 76
SWIDTH 13 0
DWIDTH 14 0
BBX 12 17 1 0
BITMAP
C000
C000
C000
C000
C000
C000
C000
C000
C000
C000
C000
C000
C000
C000
C000
FFF0
FFF0
ENDCHAR

STARTCHAR char77
ENCODING 77
SWIDTH 35 0
DWIDTH 20 0
BBX 16 17 1 0
BITMAP
E007
E007
F00F
F00F
F00B
D81B
D81B
DC33
CC33
CC33
C663
C663
C763
C3C3
C3C3
C383
C183
ENDCHAR

STARTCHAR char78
ENCODING 78
SWIDTH 24 0
DWIDTH 17 0
BBX 13 17 1 0
BITMAP
E018
E018
F018
F818
D818
CC18
CE18
C618
C318
C398
C198
C0D8
C0F8
C078
C078
C038
C018
ENDCHAR

STARTCHAR char79
ENCODING 79
SWIDTH 31 0
DWIDTH 19 0
BBX 16 17 0 0
BITMAP
0FF0
3FFC
380C
7006
6006
C003
C003
C003
C003
C003
C003
E007
6006
700E
3C1C
1FF8
07E0
ENDCHAR

STARTCHAR char80
ENCODING 80
SWIDTH 17 0
DWIDTH 15 0
BBX 12 17 1 0
BITMAP
FF80
FFE0
C070
C030
C030
C030
C030
C0E0
FFE0
FF80
C000
C000
C000
C000
C000
C000
C000
ENDCHAR

STARTCHAR char81
ENCODING 81
SWIDTH 31 0
DWIDTH 19 0
BBX 16 19 0 -2
BITMAP
0FF0
3FFC
380C
7006
6006
E003
C003
C003
C003
C003
C003
E027
6066
707E
3C3C
1FFC
07E6
0006
0002
ENDCHAR

STARTCHAR char82
ENCODING 82
SWIDTH 21 0
DWIDTH 16 0
BBX 13 17 1 0
BITMAP
FFC0
FFF0
C038
C018
C018
C018
C030
C0F0
FFE0
FFE0
C070
C030
C030
C030
C038
C038
C038
ENDCHAR

STARTCHAR char83
ENCODING 83
SWIDTH 24 0
DWIDTH 17 0
BBX 14 17 0 0
BITMAP
0FE0
3FF8
7038
601C
600C
7000
3E00
1FE0
07F8
007C
001C
C00C
600C
700C
3818
1FF0
07E0
ENDCHAR

STARTCHAR char84
ENCODING 84
SWIDTH 13 0
DWIDTH 14 0
BBX 14 17 -1 0
BITMAP
FFFC
FFFC
0300
0300
0300
0300
0300
0300
0300
0300
0300
0300
0300
0300
0300
0300
0300
ENDCHAR

STARTCHAR char85
ENCODING 85
SWIDTH 24 0
DWIDTH 17 0
BBX 13 17 1 0
BITMAP
C018
C018
C018
C018
C018
C018
C018
C018
C018
C018
C018
C018
C018
E038
7070
3FE0
1F80
ENDCHAR

STARTCHAR char86
ENCODING 86
SWIDTH 17 0
DWIDTH 15 0
BBX 15 17 -1 0
BITMAP
E00E
600E
700C
701C
301C
3818
3838
1830
1C30
0C70
0C60
0E60
06E0
06C0
07C0
0380
0380
ENDCHAR

STARTCHAR char87
ENCODING 87
SWIDTH 6 0
DWIDTH 22 0
BBX 21 17 -1 0
BITMAP
C07018
E07038
E0D838
60D830
60D830
71D830
719C70
318C60
318C60
338C60
3B0EE0
1B06C0
1B06C0
1B06C0
1E0780
0E0380
0E0380
ENDCHAR

STARTCHAR char88
ENCODING 88
SWIDTH 17 0
DWIDTH 15 0
BBX 15 17 -1 0
BITMAP
700E
701C
3838
1C70
0C70
0EE0
07C0
0380
0380
07C0
0EE0
0CE0
1C70
3838
7838
701C
E00E
ENDCHAR

STARTCHAR char89
ENCODING 89
SWIDTH 21 0
DWIDTH 16 0
BBX 15 17 -1 0
BITMAP
E00E
700E
381C
3818
1C38
0E70
0660
07E0
03C0
0180
0180
0180
0180
0180
0180
0180
0180
ENDCHAR

STARTCHAR char90
ENCODING 90
SWIDTH 17 0
DWIDTH 15 0
BBX 14 17 -1 0
BITMAP
7FFC
7FFC
0038
0030
0070
00E0
01C0
0380
0700
0700
0E00
1C00
3800
7000
7000
FFFC
FFFC
ENDCHAR

STARTCHAR char91
ENCODING 91
SWIDTH 28 0
DWIDTH 8 0
BBX 4 21 3 -4
BITMAP
F0
F0
C0
C0
C0
C0
C0
C0
C0
C0
C0
C0
C0
C0
C0
C0
C0
C0
C0
F0
F0
ENDCHAR

STARTCHAR char92
ENCODING 92
SWIDTH 25 0
DWIDTH 7 0
BBX 7 18 0 0
BITMAP
C0
C0
40
40
60
60
20
30
30
10
18
18
08
0C
0C
04
06
06
ENDCHAR

STARTCHAR char93
ENCODING 93
SWIDTH 28 0
DWIDTH 8 0
BBX 5 21 0 -4
BITMAP
F8
F8
18
18
18
18
18
18
18
18
18
18
18
18
18
18
18
18
18
F8
F8
ENDCHAR

STARTCHAR char94
ENCODING 94
SWIDTH 0 0
DWIDTH 0 0
BBX 8 3 -4 19
BITMAP
18
3C
6E
ENDCHAR

STARTCHAR char95
ENCODING 95
SWIDTH 17 0
DWIDTH 15 0
BBX 14 2 0 -3
BITMAP
FFFC
FFFC
ENDCHAR

STARTCHAR char96
ENCODING 96
SWIDTH 0 0
DWIDTH 0 0
BBX 4 3 -3 14
BITMAP
E0
70
30
ENDCHAR

STARTCHAR char97
ENCODING 97
SWIDTH 13 0
DWIDTH 14 0
BBX 12 13 0 0
BITMAP
1F80
3FC0
70E0
6060
00E0
07E0
3F60
7060
C060
C0E0
E1E0
7F70
3E30
ENDCHAR

STARTCHAR char98
ENCODING 98
SWIDTH 17 0
DWIDTH 15 0
BBX 12 17 1 0
BITMAP
C000
C000
C000
C000
CF80
DFC0
F0E0
E070
C070
C030
C030
C030
C030
E060
F0E0
DFC0
CF80
ENDCHAR

STARTCHAR char99
ENCODING 99
SWIDTH 13 0
DWIDTH 14 0
BBX 12 13 0 0
BITMAP
0F80
3FC0
70E0
6070
E000
C000
C000
C000
C030
6070
7060
3FE0
0F80
ENDCHAR

STARTCHAR char100
ENCODING 100
SWIDTH 17 0
DWIDTH 15 0
BBX 12 17 0 0
BITMAP
0030
0030
0030
0030
1F30
3FB0
70F0
6070
E030
C030
C030
C030
C030
E070
70F0
7FF0
1F30
ENDCHAR

STARTCHAR char101
ENCODING 101
SWIDTH 13 0
DWIDTH 14 0
BBX 12 13 0 0
BITMAP
1F80
3FC0
70E0
6060
C060
FFF0
FFF0
C000
E000
6060
70E0
3FC0
1F80
ENDCHAR

STARTCHAR char102
ENCODING 102
SWIDTH 25 0
DWIDTH 7 0
BBX 6 17 0 0
BITMAP
3C
3C
30
30
FC
FC
30
30
30
30
30
30
30
30
30
30
30
ENDCHAR

STARTCHAR char103
ENCODING 103
SWIDTH 13 0
DWIDTH 14 0
BBX 12 17 0 -4
BITMAP
1F60
3FE0
70E0
6060
C060
C060
C060
C060
E060
70E0
3FE0
1F70
0060
0060
60E0
7FC0
1F80
ENDCHAR

STARTCHAR char104
ENCODING 104
SWIDTH 13 0
DWIDTH 14 0
BBX 10 17 1 0
BITMAP
C000
C000
C000
C000
CF00
FF80
F0C0
E0C0
C0C0
C0C0
C0C0
C0C0
C0C0
C0C0
C0C0
C0C0
C0C0
ENDCHAR

STARTCHAR char105
ENCODING 105
SWIDTH 21 0
DWIDTH 6 0
BBX 2 17 2 0
BITMAP
C0
C0
00
00
C0
C0
C0
C0
C0
C0
C0
C0
C0
C0
C0
C0
C0
ENDCHAR

STARTCHAR char106
ENCODING 106
SWIDTH 21 0
DWIDTH 6 0
BBX 4 21 -1 -4
BITMAP
30
30
00
00
30
30
30
30
30
30
30
30
30
30
30
30
30
30
30
F0
E0
ENDCHAR

STARTCHAR char107
ENCODING 107
SWIDTH 10 0
DWIDTH 13 0
BBX 12 17 1 0
BITMAP
C000
C000
C000
C000
C1E0
C3C0
C780
CE00
DC00
FC00
FE00
E700
C380
C380
C1C0
C0E0
C0E0
ENDCHAR

STARTCHAR char108
ENCODING 108
SWIDTH 21 0
DWIDTH 6 0
BBX 2 17 2 0
BITMAP
C0
C0
C0
C0
C0
C0
C0
C0
C0
C0
C0
C0
C0
C0
C0
C0
C0
ENDCHAR

STARTCHAR char109
ENCODING 109
SWIDTH 35 0
DWIDTH 20 0
BBX 16 13 1 0
BITMAP
DE3C
DF7E
E3C7
C183
C183
C183
C183
C183
C183
C183
C183
C183
C183
ENDCHAR

STARTCHAR char110
ENCODING 110
SWIDTH 13 0
DWIDTH 14 0
BBX 10 13 1 0
BITMAP
CF00
DF80
F1C0
E0C0
E0C0
C0C0
C0C0
C0C0
C0C0
C0C0
C0C0
C0C0
C0C0
ENDCHAR

STARTCHAR char111
ENCODING 111
SWIDTH 13 0
DWIDTH 14 0
BBX 12 13 0 0
BITMAP
1F80
3FC0
70E0
6060
E030
C030
C030
C030
C030
E060
70E0
3FC0
1F80
ENDCHAR

STARTCHAR char112
ENCODING 112
SWIDTH 17 0
DWIDTH 15 0
BBX 12 17 1 -4
BITMAP
CF80
DFC0
F0E0
E060
C070
C030
C030
C030
C030
E070
F0E0
DFE0
CF80
C000
C000
C000
C000
ENDCHAR

STARTCHAR char113
ENCODING 113
SWIDTH 17 0
DWIDTH 15 0
BBX 12 17 0 -4
BITMAP
1F30
3FB0
70F0
6070
E030
C030
C030
C030
E030
E070
70F0
3FB0
1F30
0030
0030
0030
0030
ENDCHAR

STARTCHAR char114
ENCODING 114
SWIDTH 32 0
DWIDTH 9 0
BBX 6 13 2 0
BITMAP
DC
DC
F0
E0
C0
C0
C0
C0
C0
C0
C0
C0
C0
ENDCHAR

STARTCHAR char115
ENCODING 115
SWIDTH 10 0
DWIDTH 13 0
BBX 11 13 0 0
BITMAP
1F00
3F80
61C0
60C0
7000
3E00
1F80
01E0
0060
E060
70E0
7FC0
1F00
ENDCHAR

STARTCHAR char116
ENCODING 116
SWIDTH 25 0
DWIDTH 7 0
BBX 6 17 0 0
BITMAP
30
30
30
30
FC
FC
70
70
70
70
70
70
70
70
70
3C
3C
ENDCHAR

STARTCHAR char117
ENCODING 117
SWIDTH 13 0
DWIDTH 14 0
BBX 10 13 1 0
BITMAP
C0C0
C0C0
C0C0
C0C0
C0C0
C0C0
C0C0
C0C0
C0C0
C0C0
E1C0
7EC0
3EC0
ENDCHAR

STARTCHAR char118
ENCODING 118
SWIDTH 3 0
DWIDTH 11 0
BBX 12 13 -1 0
BITMAP
E070
6060
60E0
70E0
30C0
31C0
3980
1980
1980
1F00
0F00
0F00
0E00
ENDCHAR

STARTCHAR char119
ENCODING 119
SWIDTH 28 0
DWIDTH 18 0
BBX 17 13 -1 0
BITMAP
C1C180
E1C180
61C380
61E380
736300
336700
336700
333600
3F3600
1E3600
1E3C00
1E1C00
0C1C00
ENDCHAR

STARTCHAR char120
ENCODING 120
SWIDTH 10 0
DWIDTH 13 0
BBX 13 13 -1 0
BITMAP
7070
38E0
18E0
1DC0
0F80
0700
0700
0F80
1D80
19C0
38E0
7060
6070
ENDCHAR

STARTCHAR char121
ENCODING 121
SWIDTH 10 0
DWIDTH 13 0
BBX 13 17 -1 -4
BITMAP
E038
6030
7070
3060
3060
38E0
18C0
1CC0
0D80
0D80
0780
0700
0700
0600
0600
3E00
3C00
ENDCHAR

STARTCHAR char122
ENCODING 122
SWIDTH 3 0
DWIDTH 11 0
BBX 10 13 0 0
BITMAP
FFC0
FFC0
0380
0300
0700
0E00
1C00
1800
3800
7000
E000
FFC0
FFC0
ENDCHAR

STARTCHAR char123
ENCODING 123
SWIDTH 32 0
DWIDTH 9 0
BBX 6 23 1 -5
BITMAP
1C
3C
30
30
30
30
30
30
30
30
E0
C0
60
30
30
30
30
30
30
30
30
3C
1C
ENDCHAR

STARTCHAR char124
ENCODING 124
SWIDTH 25 0
DWIDTH 7 0
BBX 2 18 2 0
BITMAP
C0
C0
C0
C0
C0
C0
C0
C0
C0
C0
C0
C0
C0
C0
C0
C0
C0
C0
ENDCHAR

STARTCHAR char125
ENCODING 125
SWIDTH 32 0
DWIDTH 9 0
BBX 6 23 1 -5
BITMAP
E0
F0
30
30
30
30
30
30
30
38
1C
0C
18
18
30
30
30
30
30
30
30
F0
E0
ENDCHAR

STARTCHAR char126
ENCODING 126
SWIDTH 0 0
DWIDTH 0 0
BBX 8 2 -4 19
BITMAP
73
FF
ENDCHAR

STARTCHAR char128
ENCODING 128
SWIDTH 13 0
DWIDTH 14 0
BBX 13 18 0 0
BITMAP
01F8
07F8
1E08
3800
3800
7000
FFF0
FFF0
6000
6000
FFE0
FFE0
7000
3800
3800
1E08
0FF8
03F0
ENDCHAR

STARTCHAR char130
ENCODING 130
SWIDTH 17 0
DWIDTH 5 0
BBX 3 7 1 -4
BITMAP
80
60
60
20
60
C0
80
ENDCHAR

STARTCHAR char131
ENCODING 131
SWIDTH 0 0
DWIDTH 0 0
BBX 8 3 -4 19
BITMAP
18
3C
6E
ENDCHAR

STARTCHAR char132
ENCODING 132
SWIDTH 35 0
DWIDTH 10 0
BBX 7 6 1 -4
BITMAP
C6
C6
42
46
8C
88
ENDCHAR

STARTCHAR char133
ENCODING 133
SWIDTH 24 0
DWIDTH 27 0
BBX 19 2 3 0
BITMAP
C0C060
C0C060
ENDCHAR

STARTCHAR char134
ENCODING 134
SWIDTH 10 0
DWIDTH 13 0
BBX 11 19 0 -2
BITMAP
0600
0600
0600
0600
0600
FFE0
FFE0
0E00
0E00
0E00
0E00
0E00
0E00
0E00
0E00
0E00
0E00
0E00
0E00
ENDCHAR

STARTCHAR char136
ENCODING 136
SWIDTH 0 0
DWIDTH 0 0
BBX 8 3 -4 14
BITMAP
38
3C
66
ENDCHAR

STARTCHAR char138
ENCODING 138
SWIDTH 16 0
DWIDTH 25 0
BBX 0 0 0 0
BITMAP
ENDCHAR

STARTCHAR char139
ENCODING 139
SWIDTH 32 0
DWIDTH 9 0
BBX 4 8 2 3
BITMAP
10
30
70
C0
C0
60
30
10
ENDCHAR

STARTCHAR char140
ENCODING 140
SWIDTH 24 0
DWIDTH 27 0
BBX 24 17 0 0
BITMAP
0FEFFF
1FFFFF
381C00
600C00
600C00
C00C00
C00C00
C00FFE
C00FFE
C00C00
C00C00
C00C00
600C00
700C00
383C00
1FFFFF
07CFFF
ENDCHAR

STARTCHAR char141
ENCODING 141
SWIDTH 16 0
DWIDTH 25 0
BBX 0 0 0 0
BITMAP
ENDCHAR

STARTCHAR char145
ENCODING 145
SWIDTH 21 0
DWIDTH 6 0
BBX 3 5 2 12
BITMAP
40
80
80
C0
E0
ENDCHAR

STARTCHAR char146
ENCODING 146
SWIDTH 21 0
DWIDTH 6 0
BBX 3 6 1 11
BITMAP
60
60
20
20
C0
80
ENDCHAR

STARTCHAR char147
ENCODING 147
SWIDTH 35 0
DWIDTH 10 0
BBX 8 6 1 11
BITMAP
42
C4
84
C6
C7
C0
ENDCHAR

STARTCHAR char148
ENCODING 148
SWIDTH 35 0
DWIDTH 10 0
BBX 6 6 2 11
BITMAP
CC
CC
44
4C
98
90
ENDCHAR

STARTCHAR char149
ENCODING 149
SWIDTH 32 0
DWIDTH 9 0
BBX 7 6 1 6
BITMAP
38
7C
FE
FE
FE
38
ENDCHAR

STARTCHAR char150
ENCODING 150
SWIDTH 13 0
DWIDTH 14 0
BBX 12 2 0 6
BITMAP
FFF0
FFF0
ENDCHAR

STARTCHAR char151
ENCODING 151
SWIDTH 24 0
DWIDTH 17 0
BBX 17 2 -1 6
BITMAP
FFFF80
FFFF80
ENDCHAR

STARTCHAR char152
ENCODING 152
SWIDTH 0 0
DWIDTH 0 0
BBX 8 3 -4 14
BITMAP
7B
7E
CE
ENDCHAR

STARTCHAR char153
ENCODING 153
SWIDTH 6 0
DWIDTH 22 0
BBX 20 9 0 7
BITMAP
FF2060
9920A0
1830E0
183160
183960
182960
182E60
182660
3864F0
ENDCHAR

STARTCHAR char155
ENCODING 155
SWIDTH 32 0
DWIDTH 9 0
BBX 4 8 2 3
BITMAP
80
C0
70
30
30
70
C0
80
ENDCHAR

STARTCHAR char156
ENCODING 156
SWIDTH 9 0
DWIDTH 23 0
BBX 21 13 0 0
BITMAP
1F0F80
3F9FE0
70F070
607030
C06030
C07FF8
C07FF8
C06000
C06000
607030
60F870
3FFFE0
1F0FC0
ENDCHAR

STARTCHAR char157
ENCODING 157
SWIDTH 16 0
DWIDTH 25 0
BBX 0 0 0 0
BITMAP
ENDCHAR

STARTCHAR char159
ENCODING 159
SWIDTH 21 0
DWIDTH 16 0
BBX 15 21 -1 0
BITMAP
0E60
0E60
0000
0000
700E
701C
381C
1838
1C30
0E70
0660
07E0
03C0
0180
0180
0180
0180
0180
0180
0180
0180
ENDCHAR

STARTCHAR char160
ENCODING 160
SWIDTH 25 0
DWIDTH 7 0
BBX 0 0 0 0
BITMAP
ENDCHAR

STARTCHAR char161
ENCODING 161
SWIDTH 25 0
DWIDTH 7 0
BBX 3 17 1 0
BITMAP
E0
E0
00
00
20
60
60
60
60
60
60
60
60
60
60
60
60
ENDCHAR

STARTCHAR char162
ENCODING 162
SWIDTH 13 0
DWIDTH 14 0
BBX 12 18 0 -3
BITMAP
0600
0600
1F80
3FE0
7660
6670
E600
C600
C600
C600
C630
E670
6460
3FE0
1FC0
0600
0600
0600
ENDCHAR

STARTCHAR char163
ENCODING 163
SWIDTH 17 0
DWIDTH 15 0
BBX 14 18 0 -1
BITMAP
0FC0
3FF0
6030
6038
6018
6000
6000
FF00
FF00
1800
1800
1800
1800
3000
7E08
FFFC
E3F8
4000
ENDCHAR

STARTCHAR char164
ENCODING 164
SWIDTH 0 0
DWIDTH 0 0
BBX 4 3 -1 19
BITMAP
60
E0
C0
ENDCHAR

STARTCHAR char165
ENCODING 165
SWIDTH 0 0
DWIDTH 0 0
BBX 8 3 -4 19
BITMAP
66
7C
3C
ENDCHAR

STARTCHAR char166
ENCODING 166
SWIDTH 16 0
DWIDTH 25 0
BBX 0 0 0 0
BITMAP
ENDCHAR

STARTCHAR char167
ENCODING 167
SWIDTH 13 0
DWIDTH 14 0
BBX 12 22 0 -5
BITMAP
0F80
1FC0
30E0
3000
3800
1C00
7F00
E780
C3E0
C0E0
E070
7030
3C30
0FE0
07C0
01C0
00C0
60C0
70C0
39C0
1FC0
0F00
ENDCHAR

STARTCHAR char168
ENCODING 168
SWIDTH 0 0
DWIDTH 0 0
BBX 6 2 -3 14
BITMAP
CC
CC
ENDCHAR

STARTCHAR char169
ENCODING 169
SWIDTH 35 0
DWIDTH 20 0
BBX 16 17 1 0
BITMAP
03C0
0FF0
1818
200C
43E6
4622
8C21
9821
9801
9801
9801
9801
CFA2
43C2
2004
1FF8
0FE0
ENDCHAR

STARTCHAR char170
ENCODING 170
SWIDTH 0 0
DWIDTH 0 0
BBX 6 2 -3 19
BITMAP
CC
CC
ENDCHAR

STARTCHAR char171
ENCODING 171
SWIDTH 35 0
DWIDTH 10 0
BBX 8 9 0 2
BITMAP
11
31
73
E6
C4
E7
73
11
11
ENDCHAR

STARTCHAR char172
ENCODING 172
SWIDTH 28 0
DWIDTH 18 0
BBX 16 7 0 0
BITMAP
FFFF
0001
0001
0001
0001
0001
0001
ENDCHAR

STARTCHAR char174
ENCODING 174
SWIDTH 35 0
DWIDTH 20 0
BBX 17 18 0 -1
BITMAP
01E000
07F800
0C0C00
100600
27E300
433900
431880
833880
83C080
836080
836080
C33080
431900
279D00
300200
180C00
07F000
038000
ENDCHAR

STARTCHAR char176
ENCODING 176
SWIDTH 25 0
DWIDTH 7 0
BBX 7 8 0 9
BITMAP
30
7C
84
82
82
86
7C
38
ENDCHAR

STARTCHAR char177
ENCODING 177
SWIDTH 13 0
DWIDTH 14 0
BBX 12 15 0 0
BITMAP
0200
0200
0200
0200
0200
FFF0
FFF0
0200
0200
0200
0200
0200
0000
FFF0
FFF0
ENDCHAR

STARTCHAR char179
ENCODING 179
SWIDTH 16 0
DWIDTH 25 0
BBX 0 0 0 0
BITMAP
ENDCHAR

STARTCHAR char180
ENCODING 180
SWIDTH 0 0
DWIDTH 0 0
BBX 4 3 -1 14
BITMAP
60
E0
C0
ENDCHAR

STARTCHAR char182
ENCODING 182
SWIDTH 28 0
DWIDTH 18 0
BBX 11 21 2 -4
BITMAP
1FE0
7FE0
7C60
FC60
FC60
FC60
7C60
7C60
3C60
0C60
0C60
0C60
0C60
0C60
0C60
0C60
0C60
0C60
0C60
0C60
0C60
ENDCHAR

STARTCHAR char183
ENCODING 183
SWIDTH 14 0
DWIDTH 4 0
BBX 3 3 1 6
BITMAP
E0
E0
E0
ENDCHAR

STARTCHAR char184
ENCODING 184
SWIDTH 0 0
DWIDTH 0 0
BBX 2 4 -1 -5
BITMAP
C0
C0
40
80
ENDCHAR

STARTCHAR char185
ENCODING 185
SWIDTH 16 0
DWIDTH 25 0
BBX 0 0 0 0
BITMAP
ENDCHAR

STARTCHAR char186
ENCODING 186
SWIDTH 0 0
DWIDTH 0 0
BBX 8 2 -4 19
BITMAP
73
FF
ENDCHAR

STARTCHAR char187
ENCODING 187
SWIDTH 35 0
DWIDTH 10 0
BBX 8 9 0 2
BITMAP
84
C4
E7
33
11
73
E6
C4
84
ENDCHAR

STARTCHAR char189
ENCODING 189
SWIDTH 16 0
DWIDTH 25 0
BBX 0 0 0 0
BITMAP
ENDCHAR

STARTCHAR char191
ENCODING 191
SWIDTH 10 0
DWIDTH 13 0
BBX 11 17 0 0
BITMAP
0600
0600
0000
0000
0600
0600
0C00
1C00
3800
7000
E000
C060
C060
C060
E0C0
7F80
1F00
ENDCHAR

STARTCHAR char192
ENCODING 192
SWIDTH 21 0
DWIDTH 16 0
BBX 16 22 -1 0
BITMAP
0700
0300
0300
0000
0000
0380
03C0
07C0
06E0
0660
0E60
0C70
1C30
1C30
1838
3FF8
3FFC
301C
700C
600E
E00E
E006
ENDCHAR

STARTCHAR char193
ENCODING 193
SWIDTH 21 0
DWIDTH 16 0
BBX 16 22 -1 0
BITMAP
01C0
0180
0300
0000
0000
0380
03C0
07C0
06E0
0660
0E60
0C70
1C30
1C30
1838
3FF8
3FFC
301C
700C
600E
E00E
E006
ENDCHAR

STARTCHAR char194
ENCODING 194
SWIDTH 21 0
DWIDTH 16 0
BBX 16 22 -1 0
BITMAP
0380
07C0
06C0
0000
0000
0380
03C0
07C0
06E0
0660
0E60
0C70
1C30
1C30
1838
3FF8
3FFC
301C
700C
600E
E00E
E006
ENDCHAR

STARTCHAR char195
ENCODING 195
SWIDTH 21 0
DWIDTH 16 0
BBX 16 21 -1 0
BITMAP
0E30
1FE0
0000
0000
0380
03C0
07C0
06E0
0660
0E60
0C70
1C30
1C30
1838
3FF8
3FF8
301C
700C
600E
E00E
E006
ENDCHAR

STARTCHAR char196
ENCODING 196
SWIDTH 21 0
DWIDTH 16 0
BBX 16 22 -1 0
BITMAP
0060
0660
0660
0000
0000
03C0
03C0
07C0
06E0
0660
0E70
0C70
1C30
1C38
1C18
3FF8
3FFC
301C
700C
600E
E00E
E006
ENDCHAR

STARTCHAR char197
ENCODING 197
SWIDTH 21 0
DWIDTH 16 0
BBX 16 23 -1 0
BITMAP
0180
03C0
0240
03C0
0180
0000
03C0
03C0
07C0
06E0
0660
0E60
0C70
1C30
1C38
1838
3FF8
3FFC
301C
700C
600E
E00E
E006
ENDCHAR

STARTCHAR char198
ENCODING 198
SWIDTH 9 0
DWIDTH 23 0
BBX 22 17 -1 0
BITMAP
03FFFC
07FFFC
063000
063000
0E3000
0C3000
1C3000
183FF8
183FF8
383000
3FF000
3FF000
703000
603000
E03000
E03FFC
C03FFC
ENDCHAR

STARTCHAR char199
ENCODING 199
SWIDTH 24 0
DWIDTH 17 0
BBX 15 22 0 -5
BITMAP
0FE0
3FF8
381C
700E
6006
E000
C000
C000
C000
C000
E006
E006
700E
700C
3C3C
1FF0
07C0
0000
0300
0300
0100
0300
ENDCHAR

STARTCHAR char200
ENCODING 200
SWIDTH 17 0
DWIDTH 15 0
BBX 13 22 1 0
BITMAP
1C00
0C00
0600
0000
0000
FFF0
FFF0
C000
C000
C000
C000
C000
FFE0
FFE0
C000
C000
C000
C000
C000
C000
FFF8
FFF8
ENDCHAR

STARTCHAR char201
ENCODING 201
SWIDTH 17 0
DWIDTH 15 0
BBX 13 22 1 0
BITMAP
0700
0600
0E00
0000
0000
FFF0
FFF0
C000
C000
C000
C000
C000
FFE0
FFE0
C000
C000
C000
C000
C000
C000
FFF8
FFF8
ENDCHAR

STARTCHAR char202
ENCODING 202
SWIDTH 17 0
DWIDTH 15 0
BBX 13 22 1 0
BITMAP
0E00
1F00
1B00
0000
0000
FFF0
FFF0
C000
C000
C000
C000
C000
FFE0
FFE0
C000
C000
C000
C000
C000
C000
FFF8
FFF8
ENDCHAR

STARTCHAR char203
ENCODING 203
SWIDTH 17 0
DWIDTH 15 0
BBX 13 21 1 0
BITMAP
1980
1980
0000
0000
FFF0
FFF0
C000
C000
C000
C000
C000
FFE0
FFE0
C000
C000
C000
C000
C000
C000
FFF8
FFF8
ENDCHAR

STARTCHAR char204
ENCODING 204
SWIDTH 21 0
DWIDTH 6 0
BBX 4 22 0 0
BITMAP
E0
60
30
00
00
30
30
30
30
30
30
30
30
30
30
30
30
30
30
30
30
30
ENDCHAR

STARTCHAR char205
ENCODING 205
SWIDTH 21 0
DWIDTH 6 0
BBX 4 22 2 0
BITMAP
60
C0
C0
00
00
C0
C0
C0
C0
C0
C0
C0
C0
C0
C0
C0
C0
C0
C0
C0
C0
C0
ENDCHAR

STARTCHAR char206
ENCODING 206
SWIDTH 21 0
DWIDTH 6 0
BBX 7 22 -1 0
BITMAP
38
7C
EC
00
00
18
18
18
18
18
18
18
18
18
18
18
18
18
18
18
18
18
ENDCHAR

STARTCHAR char207
ENCODING 207
SWIDTH 21 0
DWIDTH 6 0
BBX 7 21 -1 0
BITMAP
E6
E6
00
00
18
18
18
18
18
18
18
18
18
18
18
18
18
18
18
18
18
ENDCHAR

STARTCHAR char209
ENCODING 209
SWIDTH 24 0
DWIDTH 17 0
BBX 13 21 1 0
BITMAP
1C60
3FC0
0000
8018
E018
F018
F018
F818
DC18
CC18
CE18
C718
C318
C398
C198
C0D8
C0F8
C078
C078
C038
C018
ENDCHAR

STARTCHAR char210
ENCODING 210
SWIDTH 31 0
DWIDTH 19 0
BBX 16 22 0 0
BITMAP
0700
0380
0180
0000
0000
0FF0
3FFC
380C
7006
6006
C003
C003
C003
C003
C003
C003
E007
6006
700E
3C1C
1FF8
07E0
ENDCHAR

STARTCHAR char211
ENCODING 211
SWIDTH 31 0
DWIDTH 19 0
BBX 16 22 0 0
BITMAP
00C0
01C0
0180
0000
0000
0FF0
3FFC
380C
7006
6006
C003
C003
C003
C003
C003
C003
E007
6006
700E
3C1C
1FF8
07E0
ENDCHAR

STARTCHAR char212
ENCODING 212
SWIDTH 31 0
DWIDTH 19 0
BBX 16 22 0 0
BITMAP
0180
03C0
06E0
0000
0000
0FF0
3FFC
380C
7006
6006
C003
C003
C003
C003
C003
C003
E007
6006
700E
3C1C
1FF8
07E0
ENDCHAR

STARTCHAR char213
ENCODING 213
SWIDTH 31 0
DWIDTH 19 0
BBX 16 21 0 0
BITMAP
0730
0FF0
0000
0000
0FF0
3FFC
380C
7006
6006
C003
C003
C003
C003
C003
C003
E007
6006
700E
3C1C
1FF8
07E0
ENDCHAR

STARTCHAR char214
ENCODING 214
SWIDTH 31 0
DWIDTH 19 0
BBX 16 21 0 0
BITMAP
0660
0660
0000
0000
0FF0
3FFC
380C
7006
6006
C003
C003
C003
C003
C003
C003
E007
6006
700E
3C1C
1FF8
07E0
ENDCHAR

STARTCHAR char216
ENCODING 216
SWIDTH 31 0
DWIDTH 19 0
BBX 18 18 -1 -1
BITMAP
07F080
0FFF00
1C0600
380700
300B00
601980
603180
606180
60C180
618180
630180
760100
340300
380700
3E0E00
6FFC00
C3F000
400000
ENDCHAR

STARTCHAR char217
ENCODING 217
SWIDTH 24 0
DWIDTH 17 0
BBX 13 22 1 0
BITMAP
0E00
0600
0600
0000
0000
C018
C018
C018
C018
C018
C018
C018
C018
C018
C018
C018
C018
C018
E038
7070
3FE0
1F80
ENDCHAR

STARTCHAR char218
ENCODING 218
SWIDTH 24 0
DWIDTH 17 0
BBX 13 22 1 0
BITMAP
0380
0300
0600
0000
0000
C018
C018
C018
C018
C018
C018
C018
C018
C018
C018
C018
C018
C018
E038
7070
3FE0
1F80
ENDCHAR

STARTCHAR char219
ENCODING 219
SWIDTH 24 0
DWIDTH 17 0
BBX 13 22 1 0
BITMAP
0700
0F00
1D80
0000
0000
C018
C018
C018
C018
C018
C018
C018
C018
C018
C018
C018
C018
C018
E038
7070
3FE0
1F80
ENDCHAR

STARTCHAR char220
ENCODING 220
SWIDTH 24 0
DWIDTH 17 0
BBX 13 21 1 0
BITMAP
0CC0
0CC0
0000
0000
C018
C018
C018
C018
C018
C018
C018
C018
C018
C018
C018
C018
C018
E038
7070
3FE0
1F80
ENDCHAR

STARTCHAR char222
ENCODING 222
SWIDTH 16 0
DWIDTH 25 0
BBX 0 0 0 0
BITMAP
ENDCHAR

STARTCHAR char223
ENCODING 223
SWIDTH 10 0
DWIDTH 13 0
BBX 11 17 1 0
BITMAP
3F00
7F80
C0C0
C0C0
C0C0
C180
CF00
CF80
C1C0
C0C0
C0C0
C060
C0E0
C0C0
C1C0
CF80
CF00
ENDCHAR

STARTCHAR char224
ENCODING 224
SWIDTH 13 0
DWIDTH 14 0
BBX 12 17 0 0
BITMAP
1C00
0C00
0600
0000
1F80
3FC0
70E0
60E0
00E0
07E0
3F60
7060
C060
C0E0
E1E0
7F70
3E30
ENDCHAR

STARTCHAR char225
ENCODING 225
SWIDTH 13 0
DWIDTH 14 0
BBX 12 17 0 0
BITMAP
0700
0600
0600
0000
1F80
3FC0
70E0
60E0
00E0
07E0
3F60
7060
C060
C0E0
E1E0
7F70
3E30
ENDCHAR

STARTCHAR char226
ENCODING 226
SWIDTH 13 0
DWIDTH 14 0
BBX 12 17 0 0
BITMAP
0E00
1F00
1B80
0000
1F80
3FC0
70E0
60E0
00E0
07E0
3F60
7060
C060
C0E0
E1E0
7F70
3E30
ENDCHAR

STARTCHAR char227
ENCODING 227
SWIDTH 13 0
DWIDTH 14 0
BBX 12 17 0 0
BITMAP
1DC0
3FC0
3380
0000
1F80
3FC0
70E0
60E0
00E0
07E0
3F60
7060
C060
C0E0
E1E0
7F70
3E30
ENDCHAR

STARTCHAR char228
ENCODING 228
SWIDTH 13 0
DWIDTH 14 0
BBX 12 17 0 0
BITMAP
0180
1980
1980
0000
1F80
3FC0
70C0
6060
00E0
07E0
3F60
7060
C060
C0E0
E1E0
7F70
3E70
ENDCHAR

STARTCHAR char229
ENCODING 229
SWIDTH 13 0
DWIDTH 14 0
BBX 12 17 0 0
BITMAP
0600
0B00
0F00
0600
1F80
3FC0
70E0
6060
00E0
07E0
3F60
7060
C060
C0E0
E1E0
7F70
3E30
ENDCHAR

STARTCHAR char230
ENCODING 230
SWIDTH 6 0
DWIDTH 22 0
BBX 21 13 -1 0
BITMAP
0F8F80
3FDFE0
70F060
606030
006030
0FFFF0
3F7FF8
706000
E06000
E0F030
E0F870
7FBFE0
3E0FC0
ENDCHAR

STARTCHAR char231
ENCODING 231
SWIDTH 13 0
DWIDTH 14 0
BBX 12 18 0 -5
BITMAP
0F80
3FC0
7060
6070
E000
C000
C000
C000
C030
6070
7060
3FE0
0F80
0000
0600
0600
0200
0400
ENDCHAR

STARTCHAR char232
ENCODING 232
SWIDTH 13 0
DWIDTH 14 0
BBX 12 17 0 0
BITMAP
1C00
0C00
0600
0000
1F80
3FC0
70E0
6060
C060
FFF0
FFF0
C000
E000
6060
70E0
3FC0
1F80
ENDCHAR

STARTCHAR char233
ENCODING 233
SWIDTH 13 0
DWIDTH 14 0
BBX 12 17 0 0
BITMAP
0700
0600
0600
0000
1F80
3FC0
70E0
6060
C060
FFF0
FFF0
C000
E000
6060
70E0
3FC0
1F80
ENDCHAR

STARTCHAR char234
ENCODING 234
SWIDTH 13 0
DWIDTH 14 0
BBX 12 17 0 0
BITMAP
0E00
1F00
3B80
0000
1F80
3FC0
70E0
6060
C060
FFF0
FFF0
C000
E000
6060
70E0
3FC0
1F80
ENDCHAR

STARTCHAR char235
ENCODING 235
SWIDTH 13 0
DWIDTH 14 0
BBX 12 16 0 0
BITMAP
3980
3980
0000
1F80
3FC0
7060
6060
C060
FFF0
FFF0
C000
E000
6060
70E0
3FC0
1F80
ENDCHAR

STARTCHAR char236
ENCODING 236
SWIDTH 21 0
DWIDTH 6 0
BBX 4 17 0 0
BITMAP
E0
60
30
00
30
30
30
30
30
30
30
30
30
30
30
30
30
ENDCHAR

STARTCHAR char237
ENCODING 237
SWIDTH 21 0
DWIDTH 6 0
BBX 5 17 1 0
BITMAP
30
60
60
00
60
60
60
60
60
60
60
60
60
60
60
60
60
ENDCHAR

STARTCHAR char238
ENCODING 238
SWIDTH 21 0
DWIDTH 6 0
BBX 7 17 -1 0
BITMAP
38
6C
E6
00
18
18
18
18
18
18
18
18
18
18
18
18
18
ENDCHAR

STARTCHAR char239
ENCODING 239
SWIDTH 21 0
DWIDTH 6 0
BBX 7 16 -1 0
BITMAP
E6
E6
00
18
18
18
18
18
18
18
18
18
18
18
18
18
ENDCHAR

STARTCHAR char241
ENCODING 241
SWIDTH 13 0
DWIDTH 14 0
BBX 10 17 1 0
BITMAP
3D00
3F00
6700
0000
CF00
DF80
F1C0
E0C0
E0C0
C0C0
C0C0
C0C0
C0C0
C0C0
C0C0
C0C0
C0C0
ENDCHAR

STARTCHAR char242
ENCODING 242
SWIDTH 13 0
DWIDTH 14 0
BBX 12 17 0 0
BITMAP
1C00
0E00
0600
0000
1F80
3FC0
70E0
6060
E030
C030
C030
C030
C030
E060
70E0
3FC0
1F80
ENDCHAR

STARTCHAR char243
ENCODING 243
SWIDTH 13 0
DWIDTH 14 0
BBX 12 17 0 0
BITMAP
0300
0700
0600
0000
1F80
3FC0
70E0
6060
E030
C030
C030
C030
C030
E060
70E0
3FC0
1F80
ENDCHAR

STARTCHAR char244
ENCODING 244
SWIDTH 13 0
DWIDTH 14 0
BBX 12 17 0 0
BITMAP
0E00
0F00
1980
0000
1F80
3FC0
70E0
6060
E030
C030
C030
C030
C030
E060
70E0
3FC0
1F80
ENDCHAR

STARTCHAR char245
ENCODING 245
SWIDTH 13 0
DWIDTH 14 0
BBX 12 17 0 0
BITMAP
1CC0
3F80
3380
0000
1F80
3FC0
70E0
6060
E030
C030
C030
C030
C030
E060
70E0
3FC0
1F80
ENDCHAR

STARTCHAR char246
ENCODING 246
SWIDTH 13 0
DWIDTH 14 0
BBX 12 17 0 0
BITMAP
0180
1980
1980
0000
1F80
3FC0
70E0
6060
C030
C030
C030
C030
C030
6060
70E0
3FC0
0F80
ENDCHAR

STARTCHAR char247
ENCODING 247
SWIDTH 13 0
DWIDTH 14 0
BBX 12 9 0 2
BITMAP
0600
0600
0000
0000
FFF0
FFF0
0000
0600
0600
ENDCHAR

STARTCHAR char248
ENCODING 248
SWIDTH 13 0
DWIDTH 14 0
BBX 12 13 0 0
BITMAP
1F90
3FE0
70E0
60E0
E1B0
C330
C230
C430
E830
F060
7060
7FC0
5F80
ENDCHAR

STARTCHAR char249
ENCODING 249
SWIDTH 13 0
DWIDTH 14 0
BBX 10 17 1 0
BITMAP
3800
1C00
0C00
0000
C0C0
C0C0
C0C0
C0C0
C0C0
C0C0
C0C0
C0C0
C0C0
C0C0
E1C0
7EC0
3EC0
ENDCHAR

STARTCHAR char250
ENCODING 250
SWIDTH 13 0
DWIDTH 14 0
BBX 10 17 1 0
BITMAP
0700
0E00
0C00
0000
C0C0
C0C0
C0C0
C0C0
C0C0
C0C0
C0C0
C0C0
C0C0
C0C0
E1C0
7EC0
3EC0
ENDCHAR

STARTCHAR char251
ENCODING 251
SWIDTH 13 0
DWIDTH 14 0
BBX 10 17 1 0
BITMAP
0C00
1E00
3300
0000
C0C0
C0C0
C0C0
C0C0
C0C0
C0C0
C0C0
C0C0
C0C0
C0C0
E1C0
7EC0
3EC0
ENDCHAR

STARTCHAR char252
ENCODING 252
SWIDTH 13 0
DWIDTH 14 0
BBX 11 17 1 0
BITMAP
0300
3300
3300
0000
C0E0
C0E0
C0E0
C0E0
C0E0
C0E0
C0E0
C0E0
C0E0
C0E0
E1E0
7FE0
3CE0
ENDCHAR

STARTCHAR char255
ENCODING 255
SWIDTH 10 0
DWIDTH 13 0
BBX 13 20 -1 -4
BITMAP
1980
1980
0000
E038
6030
7070
3060
3060
38E0
18C0
18C0
0D80
0D80
0F80
0700
0700
0600
0E00
3E00
3C00
ENDCHAR
ENDFONT
